# xmcd CD database file
#
# Track frame offsets:
#	150
#	22527
#	44812
#
# Disc length: 893 seconds
#
# Revision: 5
# Processed by: cddbd v1.5.1PL0 Copyright (c) Steve Scherf et al.
# Submitted via: CDex 1.51
#
DISCID=1a037b03
DTITLE=峠恵子 - ひとさじの勇気
DYEAR=1993
DGENRE=JPop
TTITLE0=ひとさじの勇気
TTITLE1=48億分の1のあなた〜あすなろ白書〜
TTITLE2=ひとさじの勇気（オリジナル・カラオケ）
EXTD=YEAR: 1993
EXTT0=
EXTT1=
EXTT2=
PLAYORDER=
